<?xml version="1.0" encoding="UTF-8" standalone="no" ?>
<!DOCTYPE svg PUBLIC "-//W3C//DTD SVG 1.1//EN" "http://www.w3.org/Graphics/SVG/1.1/DTD/svg11.dtd">
<svg xmlns="http://www.w3.org/2000/svg" xmlns:xlink="http://www.w3.org/1999/xlink" version="1.1" width="1280" height="1024" viewBox="0 0 1280 1024" xml:space="preserve">
<desc>Created with Fabric.js 4.4.0</desc>
<defs>
</defs>
<g transform="matrix(1 0 0 1 640 512)" id="background-logo"  >
<rect style="stroke: none; stroke-width: 0; stroke-dasharray: none; stroke-linecap: butt; stroke-dashoffset: 0; stroke-linejoin: miter; stroke-miterlimit: 4; fill: rgb(255,255,255); fill-opacity: 0; fill-rule: nonzero; opacity: 1;"  paint-order="stroke"  x="-640" y="-512" rx="0" ry="0" width="1280" height="1024" />
</g>
<g transform="matrix(2.2532941315327526 0 0 2.2532941315327526 640.3764859160997 314.22005314404817)" id="shape-304d3873-d1cf-4687-98eb-163826f3272c"  >
<g style=""  paint-order="stroke"   >
		<g transform="matrix(1 0 0 1 0 -31.210553913930923)" id="path-01"  >
<path style="stroke: none; stroke-width: 1; stroke-dasharray: none; stroke-linecap: butt; stroke-dashoffset: 0; stroke-linejoin: miter; stroke-miterlimit: 4; fill: rgb(28,28,32); fill-rule: nonzero; opacity: 1;"  paint-order="stroke"  transform=" translate(-133.14069895456382, -100.47694608606905)" d="M 256.6 76 C 248.10000000000002 65.3 238.10000000000002 59.7 226.90000000000003 59.4 C 217.90000000000003 59.199999999999996 210.00000000000003 62.5 204.00000000000003 66.2 C 204.00000000000003 66.2 204.00000000000003 66.2 204.00000000000003 66.2 C 202.70000000000002 63.800000000000004 201.30000000000004 61.5 199.60000000000002 59.400000000000006 C 190.10000000000002 47.400000000000006 178.90000000000003 41.10000000000001 166.40000000000003 40.800000000000004 C 163.50000000000003 40.7 160.70000000000005 41.00000000000001 158.10000000000002 41.50000000000001 L 160.3 39.300000000000004 C 165 34.6 165 26.900000000000006 160.3 22.200000000000003 L 141.7 3.5 C 137 -1.2000000000000002 129.29999999999998 -1.2000000000000002 124.6 3.5 L 105.89999999999999 22.2 C 101.19999999999999 26.9 101.19999999999999 34.6 105.89999999999999 39.3 L 108.1 41.5 C 105.39999999999999 41 102.69999999999999 40.7 99.8 40.8 C 87.3 41.199999999999996 76.19999999999999 47.4 66.6 59.4 C 64.89999999999999 61.5 63.49999999999999 63.699999999999996 62.199999999999996 66.1 C 62.199999999999996 66.1 62.199999999999996 66.1 62.199999999999996 66.1 C 56.199999999999996 62.39999999999999 48.3 59.099999999999994 39.3 59.39999999999999 C 28.2 59.7 18.2 65.3 9.7 76 C -14.8 106.8 14 175 21.3 190.9 L 22.900000000000002 196.5 C 23.6 199.1 26.3 200.6 29 199.9 C 45.5 195.5 62.5 192.1 80 190 C 83.9 189.5 87.8 189.1 91.7 188.7 C 102.10000000000001 187.7 112.7 187.1 123.5 186.89999999999998 C 126.2 186.79999999999998 129 186.79999999999998 131.7 186.79999999999998 C 135.39999999999998 186.79999999999998 139.1 186.79999999999998 142.79999999999998 186.99999999999997 C 153.79999999999998 187.29999999999998 164.6 187.99999999999997 175.29999999999998 189.09999999999997 L 175.29999999999998 189.09999999999997 C 178.89999999999998 189.49999999999997 182.6 189.89999999999998 186.2 190.39999999999998 C 203.79999999999998 192.7 221 196.2 237.5 200.79999999999998 C 240.1 201.49999999999997 242.8 200.1 243.6 197.39999999999998 L 246.4 187.99999999999997 C 255.1 168 279.8 105.2 256.6 76 z M 38.6 182.3 C 38.6 182.3 38.6 182.3 38.6 182.3 C 25.5 153.70000000000002 11.100000000000001 105.30000000000001 24.8 88.10000000000001 C 29.700000000000003 82.00000000000001 34.6 79.00000000000001 39.9 78.80000000000001 C 40.9 78.80000000000001 41.9 78.80000000000001 42.9 79.00000000000001 C 50.6 80.20000000000002 56 87.20000000000002 55.8 95.00000000000001 C 55.8 95.80000000000001 55.8 96.70000000000002 55.8 97.50000000000001 C 55.8 125.00000000000001 66.3 156.4 74 175.90000000000003 C 62 177.5 50.1 179.6 38.6 182.3 z M 123.5 172.1 C 113.5 172.29999999999998 103.7 172.79999999999998 93.9 173.6 C 79.9 139.8 66.80000000000001 90.19999999999999 81.80000000000001 71.39999999999999 C 87.70000000000002 63.99999999999999 93.70000000000002 60.29999999999999 100.30000000000001 60.099999999999994 C 101.9 59.99999999999999 103.4 60.199999999999996 105.00000000000001 60.49999999999999 C 115.90000000000002 62.599999999999994 123.50000000000001 72.5 123.50000000000001 83.6 L 123.50000000000001 172.1 z M 133.1 39.2 L 124.69999999999999 30.800000000000004 L 133.1 22.400000000000006 L 141.5 30.800000000000004 L 133.1 39.2 z M 172.3 173.9 C 162.60000000000002 173 152.8 172.4 142.8 172.20000000000002 L 142.8 83.6 C 142.8 72.5 150.5 62.599999999999994 161.4 60.49999999999999 C 162.9 60.199999999999996 164.5 60.099999999999994 166 60.099999999999994 C 172.6 60.3 178.6 63.99999999999999 184.5 71.39999999999999 C 199.5 90.3 186.4 140.1 172.3 173.9 z M 227.5 182.9 C 216 180.1 204.2 177.9 192.2 176.20000000000002 C 200.2 156.20000000000002 211.2 123.20000000000002 210.5 95.00000000000001 C 210.3 87.20000000000002 215.7 80.20000000000002 223.4 78.9 C 224.4 78.7 225.4 78.7 226.4 78.7 C 231.70000000000002 78.9 236.6 81.9 241.5 88 C 255.3 105.4 240.6 154.4 227.5 182.9 z" stroke-linecap="round" />
</g>
		<g transform="matrix(1 0 0 1 0.059301045436200184 83.76573359981839)" id="path-01"  >
<path style="stroke: none; stroke-width: 1; stroke-dasharray: none; stroke-linecap: butt; stroke-dashoffset: 0; stroke-linejoin: miter; stroke-miterlimit: 4; fill: rgb(28,28,32); fill-rule: nonzero; opacity: 1;"  paint-order="stroke"  transform=" translate(-133.20000000000002, -215.45323359981836)" d="M 142.8 191.8 C 139.10000000000002 191.70000000000002 135.4 191.60000000000002 131.70000000000002 191.60000000000002 C 128.9 191.60000000000002 126.20000000000002 191.60000000000002 123.50000000000001 191.70000000000002 C 91.10000000000002 192.3 59.90000000000001 196.60000000000002 30.60000000000001 204.50000000000003 C 27.800000000000008 205.20000000000002 26.20000000000001 208.20000000000002 27.000000000000007 210.90000000000003 L 33.800000000000004 234.80000000000004 C 34.6 237.50000000000003 37.400000000000006 239.10000000000005 40.2 238.40000000000003 C 69 230.70000000000005 99.80000000000001 226.80000000000004 131.8 226.80000000000004 C 164.9 226.80000000000004 196.5 230.90000000000003 226 239.10000000000005 C 228.7 239.90000000000006 231.6 238.30000000000004 232.4 235.60000000000005 L 239.4 211.80000000000004 C 240.20000000000002 209.00000000000003 238.6 206.10000000000005 235.8 205.30000000000004 C 206.5 197.1 175.3 192.6 142.8 191.8 z M 62 223.7 C 57.6 223.7 54 220.1 54 215.7 C 54 211.29999999999998 57.6 207.7 62 207.7 C 66.4 207.7 70 211.29999999999998 70 215.7 C 69.9 220.1 66.4 223.7 62 223.7 z M 133.1 216.7 C 128.7 216.7 125.1 213.1 125.1 208.7 C 125.1 204.29999999999998 128.7 200.7 133.1 200.7 C 137.5 200.7 141.1 204.29999999999998 141.1 208.7 C 141.1 213.1 137.6 216.7 133.1 216.7 z M 204.3 223.7 C 199.9 223.7 196.3 220.1 196.3 215.7 C 196.3 211.29999999999998 199.9 207.7 204.3 207.7 C 208.70000000000002 207.7 212.3 211.29999999999998 212.3 215.7 C 212.3 220.1 208.7 223.7 204.3 223.7 z" stroke-linecap="round" />
</g>
		<g transform="matrix(1 0 0 1 0.059301045436228605 115.81250000000004)" id="path-01"  >
<path style="stroke: none; stroke-width: 1; stroke-dasharray: none; stroke-linecap: butt; stroke-dashoffset: 0; stroke-linejoin: miter; stroke-miterlimit: 4; fill: rgb(28,28,32); fill-rule: nonzero; opacity: 1;"  paint-order="stroke"  transform=" translate(-133.20000000000005, -247.5)" d="M 224.7 244.5 C 195.7 236 164.5 231.6 132 231.6 C 100.4 231.6 70 235.7 41.7 243.79999999999998 C 36.6 245.29999999999998 33.6 250.6 35.1 255.7 C 36.6 260.8 41.9 263.8 47 262.3 C 73.6 254.70000000000002 102.2 250.9 132 250.9 C 162.7 250.9 192 255 219.3 263 C 220.20000000000002 263.3 221.10000000000002 263.4 222 263.4 C 226.2 263.4 230 260.7 231.3 256.5 C 232.8 251.4 229.8 246 224.7 244.5 z" stroke-linecap="round" />
</g>
</g>
</g>
<g transform="matrix(3.4336914150014257 0 0 3.4336914150014257 640.3764859160998 665.1889661079192)" id="logo-logo"  >
<g style=""  paint-order="stroke"   >
		<g transform="matrix(0.5337006611662772 0 0 0.5337006611662772 0.04091995931509018 -5.274648351755786)"  >
<path style="stroke: none; stroke-width: 1; stroke-dasharray: none; stroke-linecap: butt; stroke-dashoffset: 0; stroke-linejoin: miter; stroke-miterlimit: 4; fill: rgb(243,197,0); fill-rule: nonzero; opacity: 1;"  paint-order="stroke"  transform=" translate(-480.07667205986013, -374.11684131179095)" d="M 617.8432257 317.4392163 C 618.2927279999999 331.5711324 610.7219769 343.0708427 606.2874759 354.8492161 C 598.5157521 386.670341 611.4353552 421.9710394 617.6178885 461.8571775 C 613.7426193 465.8542596 609.6880533000001 469.64921899999996 605.4751212000001 473.28380669999996 L 605.4751212000001 473.2999162 C 595.7996338000002 481.6272112 585.3006975000001 489.04636899999997 574.1726019000001 495.2760393 C 553.0247324000002 507.197908 529.7442419000001 515.0224201999999 505.66921000000013 518.2741363 C 519.7796767000001 503.83918850000003 515.2173545000002 480.2244514 527.7660565000001 465.3334506 C 505.5565905000001 474.5150082 515.4220672000001 510.33984069999997 487.7245992000001 519.859355 C 493.3011055000001 519.6340669000001 498.8534965000001 519.1673321000001 504.35755890000013 518.4511449 C 444.6533687000001 528.1679325 384.3564364000001 503.85025310000003 342.56628640000014 461.85717750000003 C 348.6095275000001 431.97902700000003 354.83783190000014 399.41313620000005 356.1655925000001 378.66015990000005 C 360.17163800000014 349.28202930000003 340.4076147000001 341.79442170000004 342.4377832000001 313.19845690000005 C 342.62045950000015 283.35860460000004 350.4595410000001 252.69052220000006 366.89214400000014 227.65172420000005 C 386.86161560000016 247.87532620000005 400.48188420000014 272.4427663 412.51816230000014 297.82888820000005 L 412.52616800000015 297.82888820000005 L 412.52616800000015 297.8369430000001 C 413.30680890000014 298.67045300000007 414.24514180000017 299.3979821000001 415.27824830000014 299.9130117000001 C 425.7864283000001 303.5580182000001 425.48499940000016 296.72938460000006 443.91738730000014 291.4648853000001 C 463.93285360000016 283.9120288000001 494.40256910000016 283.2673679000001 516.2750873000001 291.4637509000001 L 516.2750873000001 291.4718057000001 C 566.7862255000001 314.9223604000001 532.6528085000001 291.8579350000001 593.2920800000002 227.6517242000001 C 610.6712383000001 254.0128547000001 618.0411165000002 286.0641235000001 617.8432257000002 317.4392163000001 Z" stroke-linecap="round" />
</g>
		<g transform="matrix(0.5337006611662772 0 0 0.5337006611662772 0.04835779140245222 10.201473353362275)"  >
<path style="stroke: none; stroke-width: 1; stroke-dasharray: none; stroke-linecap: butt; stroke-dashoffset: 0; stroke-linejoin: miter; stroke-miterlimit: 4; fill: rgb(246,246,246); fill-rule: nonzero; opacity: 1;"  paint-order="stroke"  transform=" translate(-480.0906083965157, -403.11459760330206)" d="M 605.4751212 473.2838067 L 605.4751212 473.29991620000004 C 595.8008774 481.62753590000005 585.2991403999999 489.04723520000005 574.1726019 495.27603930000004 C 553.0281538 507.2063519 529.7408455 515.0183007 505.66921 518.2741363 C 519.7796767 503.83918850000003 515.2173545 480.2244514 527.7660565 465.3334506 C 505.55659049999997 474.5150082 515.4220672 510.33984069999997 487.7245992 519.859355 C 493.3691014 519.6330002000001 498.9882127 519.1524921 504.5587318 518.4270297 C 496.6157034 519.5156301000001 488.94743819999997 520.3096271000001 480.81232669999997 520.6559918 L 480.81232669999997 520.6640466 C 433.60394399999996 521.1853657 390.36323089999996 502.8736708 354.7171577 473.2999163 C 349.79165919999997 361.3504481 506.4518269 447.1607732 443.91719159999997 291.46375090000004 C 463.93499869999994 283.91311240000005 494.40073659999996 283.262579 516.2750873 291.46375090000004 C 456.2341386 455.11713860000003 610.1120921 356.74811680000005 605.4751212 473.28380680000004 Z" stroke-linecap="round" />
</g>
		<g transform="matrix(0.5337006611662772 0 0 0.5337006611662772 -54.64741804382936 -44.07845760707883)"  >
<path style="stroke: none; stroke-width: 1; stroke-dasharray: none; stroke-linecap: butt; stroke-dashoffset: 0; stroke-linejoin: miter; stroke-miterlimit: 4; fill: rgb(246,246,246); fill-rule: nonzero; opacity: 1;"  paint-order="stroke"  transform=" translate(-377.6066135, -301.4097752)" d="M 389.8821864 313.9307731 C 389.5441806 313.7859345 378.8096234 308.909506 374.2630967 301.61094810000003 L 369.1372157 304.0813569 L 365.3310406 298.6818592 C 367.7611756 296.5896809 369.9016825 294.1112173 371.5110655 291.6327537 C 372.1386993 290.69127840000004 372.64565889999994 289.7819731 373.06411419999995 288.8887773 C 376.90250839999993 298.27951340000004 382.28589659999994 307.01039660000004 389.88218629999994 313.9307731 Z" stroke-linecap="round" />
</g>
		<g transform="matrix(0.5337006611662772 0 0 0.5337006611662772 54.99482222403486 -44.07630815435107)"  >
<path style="stroke: none; stroke-width: 1; stroke-dasharray: none; stroke-linecap: butt; stroke-dashoffset: 0; stroke-linejoin: miter; stroke-miterlimit: 4; fill: rgb(246,246,246); fill-rule: nonzero; opacity: 1;"  paint-order="stroke"  transform=" translate(-583.0443209, -301.41380265)" d="M 595.7946588 299.4704412 L 588.1500895 299.4704412 C 588.1500895 299.4704412 580.7871917 313.1180268 570.293983 313.9388279 C 577.8983276 307.01845149999997 583.2817157000001 298.2795135 587.1201099 288.8887774 C 587.5385652 289.7819732 588.0535304 290.69127849999995 588.6731586 291.6327538 C 590.4917693 294.4250589 592.9782385 297.2334244 595.7946588 299.4704412 Z" stroke-linecap="round" />
</g>
		<g transform="matrix(0.5337006611662772 0 0 0.5337006611662772 -49.96842130442633 -65.41855729134497)"  >
<path style="stroke: none; stroke-width: 1; stroke-dasharray: none; stroke-linecap: butt; stroke-dashoffset: 0; stroke-linejoin: miter; stroke-miterlimit: 4; fill: rgb(246,246,246); fill-rule: nonzero; opacity: 1;"  paint-order="stroke"  transform=" translate(-386.37369415, -261.42462765000005)" d="M 410.7638917 295.1975312 C 404.0930168 285.29983550000003 379.8718221 250.2072506 361.9834965 235.58597060000002 C 362.8847471 233.90419290000003 363.8182167 232.24653030000002 364.7758016 230.59692250000003 C 365.5241588 229.30938660000004 366.272516 228.33574130000002 366.8921442 227.65172410000002 C 385.50466270000004 247.27010700000002 400.2143979 269.88196780000004 410.6109984 294.8595745 C 410.659327 294.9722431 410.7076066 295.0848626 410.7638918 295.1975312 Z" stroke-linecap="round" />
</g>
		<g transform="matrix(0.5337006611662772 0 0 0.5337006611662772 67.01752219456239 -50.726571088564725)"  >
<path style="stroke: none; stroke-width: 1; stroke-dasharray: none; stroke-linecap: butt; stroke-dashoffset: 0; stroke-linejoin: miter; stroke-miterlimit: 4; fill: rgb(246,246,246); fill-rule: nonzero; opacity: 1;"  paint-order="stroke"  transform=" translate(-605.5713680733252, -288.9531418)" d="M 608.0984234 350.2465047 C 618.7042516 306.1172008 593.622031 228.6575885 593.3001348 227.6597789 C 593.919763 228.34374699999998 594.6600654 229.31744139999998 595.4164774000001 230.5969225 C 610.1906017000001 255.9124859 617.9076148 284.7928759 617.7466667000001 314.1077816 C 618.6800872000001 330.4671737 612.6046762000001 339.721126 608.0984234000001 350.2465047 Z" stroke-linecap="round" />
</g>
		<g transform="matrix(0.5337006611662772 0 0 0.5337006611662772 14.807699901464957 57.95797200256209)"  >
<path style="stroke: none; stroke-width: 1; stroke-dasharray: none; stroke-linecap: butt; stroke-dashoffset: 0; stroke-linejoin: miter; stroke-miterlimit: 4; fill: rgb(243,197,0); fill-rule: nonzero; opacity: 1;"  paint-order="stroke"  transform=" translate(-507.74532794999993, -492.59640290000004)" d="M 527.7660565 465.3334507 C 526.7199674 466.2829808 525.7945525 467.3773986 525.0220801 468.5361563 C 522.4148384 472.45500000000004 521.2158559000001 477.1141462 520.0651529 481.6767332 C 519.0753981 485.5955769 518.0856432 489.5224754 517.0877845 493.4493739 C 516.0416954 497.6096644 514.9794967 501.7779605 513.3620589 505.7450837 C 511.5032235 510.3076708 508.8799704 514.540356 505.6692101 518.2741364 C 505.5324263 518.2982516 505.3956425 518.3143612 505.2508039 518.3304707 C 505.0254667 518.3626406999999 504.7921238 518.3948107 504.5587319 518.4270298 C 504.4943919 518.4430902 504.4300029 518.451145 504.357559 518.451145 C 498.85349659999997 519.1673322 493.30110559999997 519.6340671 487.72459929999997 519.8593551 C 515.4220672 510.3398408 505.55659059999994 474.51500830000003 527.7660566 465.3334507 Z" stroke-linecap="round" />
</g>
		<g transform="matrix(0.5337006611662772 0 0 0.5337006611662772 -25.377273101802245 29.625729640559)"  >
<path style="stroke: none; stroke-width: 1; stroke-dasharray: none; stroke-linecap: butt; stroke-dashoffset: 0; stroke-linejoin: miter; stroke-miterlimit: 4; fill: rgb(243,197,0); fill-rule: nonzero; opacity: 1;"  paint-order="stroke"  transform=" translate(-432.4503622, -439.5100111760519)" d="M 462.8596611 432.9607271 L 452.350392 444.8782064 C 438.1908634 449.8205026 422.9690729 446.881679 408.5670996 444.46780590000003 C 406.4427022 444.0976792 404.3263596 443.74361300000004 402.2261266 443.4217168 L 402.1778471 443.2447082 L 402.0410633 441.28926459999997 C 422.0537372 442.7135843 442.3963129 439.2855906 460.8639928 431.45595799999995 C 461.4675114 432.0192519 462.12736440000003 432.51815669999996 462.8596611 432.96072719999995 Z" stroke-linecap="round" />
</g>
		<g transform="matrix(0.5337006611662772 0 0 0.5337006611662772 25.548608419857658 25.081276470945596)"  >
<path style="stroke: none; stroke-width: 1; stroke-dasharray: none; stroke-linecap: butt; stroke-dashoffset: 0; stroke-linejoin: miter; stroke-miterlimit: 4; fill: rgb(243,197,0); fill-rule: nonzero; opacity: 1;"  paint-order="stroke"  transform=" translate(-527.8706703, -430.995026091187)" d="M 558.8593481 442.1422355 L 558.8593481 443.276878 C 538.8144552 446.2703068 516.0416953 453.2952971 499.5214042 438.448729 L 496.8819925 433.2423494 C 503.3487342 429.58696890000004 504.8287503 421.3150223 505.73359910000005 414.53327190000005 C 505.8060429 414.49304710000007 505.8623772 414.45282240000006 505.93477200000007 414.4125976 C 507.63265930000006 415.67596920000005 509.41910000000007 416.8186173 511.27793540000005 417.82448170000004 C 511.47910830000006 423.55388130000006 508.65463320000003 429.40400430000005 503.84259370000007 432.58254560000006 C 507.2223079000001 436.1392683000001 512.3642493000001 437.25780130000004 517.2085078000001 438.08660800000007 C 530.6951453000001 440.3719535000001 544.3507366000001 441.69161020000007 558.0304922000001 442.01350650000006 L 558.8593480000002 442.1422355000001 Z" stroke-linecap="round" />
</g>
		<g transform="matrix(0.5337006611662772 0 0 0.5337006611662772 -3.4865225452923596 50.37519943091107)"  >
<path style="stroke: none; stroke-width: 1; stroke-dasharray: none; stroke-linecap: butt; stroke-dashoffset: 0; stroke-linejoin: miter; stroke-miterlimit: 4; fill: rgb(233,188,188); fill-rule: nonzero; opacity: 1;"  paint-order="stroke"  transform=" translate(-473.46726952155495, -478.3884898817162)" d="M 485.0289023 499.886906 C 483.5482483 501.1663871 481.9066953 502.1963667 480.0961394 502.99305250000003 C 475.01853800000004 505.20595410000004 468.62123060000005 505.51974650000005 460.7030446 503.9505882 C 452.57568 502.34120520000005 451.2801385 498.93737580000004 450.8455736 497.8188428 C 447.3290756 488.6051643 457.5808867 468.6890495 466.08643270000005 457.2865355 L 467.1245162000001 456.1117173 C 466.7704500000001 459.8052238 466.8911242000001 463.547059 467.51075240000006 467.2083955 C 468.42811250000005 471.988265 469.97310640000006 476.7761893 473.48154960000005 481.58822879999997 C 475.56572220000004 479.6167248 477.10266140000004 477.50843699999996 478.58331540000006 475.2311954 C 479.11439020000006 474.38623 479.6213498000001 473.533259 480.0961394000001 472.6642275 C 483.6689717000001 466.19447629999996 485.6726457000001 459.1293105 486.33249860000006 451.846813 C 486.6543457000001 452.1204297 486.98429680000004 452.3698821 487.33030820000005 452.603225 L 496.78543340000004 458.7591347 C 497.06705580000005 478.5625809 492.94703920000006 493.0711924 485.0289023 499.8869058 Z" stroke-linecap="round" />
</g>
		<g transform="matrix(0.5337006611662772 0 0 0.5337006611662772 -30.109795587804797 -5.695261920292893)"  >
<path style="stroke: none; stroke-width: 1; stroke-dasharray: none; stroke-linecap: butt; stroke-dashoffset: 0; stroke-linejoin: miter; stroke-miterlimit: 4; fill: rgb(28,28,32); fill-rule: nonzero; opacity: 1;"  paint-order="stroke"  transform=" translate(-423.58298985, -373.328733671793)" d="M 437.2911582 364.0868156 C 430.96246379999997 357.889748 421.4148561 356.35467520000003 413.46263369999997 360.2556903 L 405.60716679999996 364.1092118 C 400.86472249999997 366.43566610000005 399.84898609999993 372.7531624 403.62318769999996 376.4489282 L 409.87482149999994 382.5706051 C 416.20351589999996 388.7677218 425.7511235999999 390.3027946 433.70334599999995 386.40177950000003 L 441.55881289999996 382.5482089 C 446.30125719999995 380.2218037 447.3169936 373.90425830000004 443.54279199999996 370.20849250000003 L 437.2911582 364.0868156 Z" stroke-linecap="round" />
</g>
		<g transform="matrix(0.5337006611662772 0 0 0.5337006611662772 30.20871906727899 -5.695274420519297)"  >
<path style="stroke: none; stroke-width: 1; stroke-dasharray: none; stroke-linecap: butt; stroke-dashoffset: 0; stroke-linejoin: miter; stroke-miterlimit: 4; fill: rgb(28,28,32); fill-rule: nonzero; opacity: 1;"  paint-order="stroke"  transform=" translate(-536.6023639, -373.32871025)" d="M 521.6312169 381.007144 L 528.1736575 384.2165783 C 534.7966458 387.4655497 542.7483278999999 386.1870509 548.0191948 381.0258075 L 553.2258691000001 375.92738149999997 C 556.3691953000001 372.84937749999995 555.5232476000001 367.58784239999994 551.5735109000001 365.65027649999996 L 545.0310703000001 362.44084219999996 C 538.4080820000001 359.19187079999995 530.4563999000002 360.47036959999997 525.1855330000001 365.63161299999996 L 519.9788587 370.730039 C 516.8355325 373.808043 517.6814802 379.06962719999996 521.6312169 381.007144 Z" stroke-linecap="round" />
</g>
		<g transform="matrix(0.5337006611662772 0 0 0.5337006611662772 -56.416023314896506 -53.340550538824175)"  >
<path style="stroke: none; stroke-width: 1; stroke-dasharray: none; stroke-linecap: butt; stroke-dashoffset: 0; stroke-linejoin: miter; stroke-miterlimit: 4; fill: rgb(28,28,32); fill-rule: nonzero; opacity: 1;"  paint-order="stroke"  transform=" translate(-374.292760998483, -284.0553036662657)" d="M 389.890192 313.9388279 C 382.29082800000003 307.01627659999997 376.9034892 298.28338629999996 373.0641142 288.8887774 C 371.1076536 292.9045001 368.0025979 296.53105769999996 364.3895653 299.4704413 C 351.9121195 293.0485436 353.70547270000003 272.8777706 367.1093774 268.9484983 C 366.2901971 264.8823999 365.6955507 260.5509338 364.9045322 256.5401673 C 364.333231 253.78813780000002 363.7860466 253.908812 366.8921441 254.5606102 C 388.8046807 263.09014410000003 397.5496939 292.91383790000003 389.890192 313.93882790000004 Z" stroke-linecap="round" />
</g>
		<g transform="matrix(0.5337006611662772 0 0 0.5337006611662772 56.53191520858417 -53.342201892903375)"  >
<path style="stroke: none; stroke-width: 1; stroke-dasharray: none; stroke-linecap: butt; stroke-dashoffset: 0; stroke-linejoin: miter; stroke-miterlimit: 4; fill: rgb(28,28,32); fill-rule: nonzero; opacity: 1;"  paint-order="stroke"  transform=" translate(-585.924386630461, -284.0522095084365)" d="M 604.3083087 286.1125818 C 603.9784068 291.6166442 600.6630817 296.68624 595.7946588 299.4704412 C 592.9782385 297.23342429999997 590.4917693 294.4250588 588.6731586 291.6327538 C 588.0535304 290.6912785 587.5385652 289.7819732 587.1201099 288.8887774 C 583.2817157 298.2795135 577.8983274999999 307.01845149999997 570.293983 313.9388279 C 564.9347592 300.04178989999997 567.6465656 284.133023 574.6715068 271.37062749999996 C 578.8076328999999 264.1605739 585.0037674 257.05518329999995 593.2920801 254.56061009999996 C 596.253339 253.98931059999995 595.9314918 253.61913479999996 595.2876993 256.54016889999997 L 594.8612383 258.7450158 C 594.2898895999999 261.9959518 593.7346504999999 265.6573375 593.0828524 268.94849819999996 C 600.0997879 270.93611179999994 605.0406055 278.92669249999994 604.3083087 286.1125818 Z" stroke-linecap="round" />
</g>
		<g transform="matrix(0.5337006611662772 0 0 0.5337006611662772 0 0)"  >
<path style="stroke: none; stroke-width: 1; stroke-dasharray: none; stroke-linecap: butt; stroke-dashoffset: 0; stroke-linejoin: miter; stroke-miterlimit: 4; fill: rgb(28,28,32); fill-rule: nonzero; opacity: 1;"  paint-order="stroke"  transform=" translate(-479.99999994327385, -384.00000004768094)" d="M 590.0089249 368.4003432 C 589.9043602 357.5208983 586.2510293 347.77609590000003 580.3365664 339.7855152 C 571.3401212 327.64269870000004 557.1131813000001 319.5475041 542.137835 317.6403892 C 529.6490562 316.039061 516.6452139 318.7508674 505.7255443 327.0150649 C 505.7094839 327.0955144 505.6933743 327.1679583 505.67726480000005 327.24840780000005 C 503.24712980000004 338.2807460000001 502.24126550000005 347.55881360000006 502.45849880000003 355.43672580000003 C 507.31886690000005 346.89896070000003 513.0241022 341.0891116 519.0512337 337.50016980000004 C 529.8260648 332.15700640000006 543.0390856 332.58351650000003 553.8058619 337.8461813 C 553.8219713999999 337.8461813 553.8460867 337.86229080000004 553.8621962 337.8703456 C 563.2127075999999 343.245679 570.5756544999999 352.3950175 573.3035705 362.7192233 C 573.778311 365.2218021 574.011703 367.8611647 573.9714291 370.645415 C 573.5530229 377.5577367 571.9999742 383.42392010000003 569.6261244 388.3003486 C 566.157906 394.0619182 560.669904 399.55797490000003 552.7276028 404.3620088 C 552.8080523 404.386124 552.8885509 404.4183431 552.9770552 404.4424583 C 559.0765815 406.389798 566.0854621999999 407.6853886 572.4586052 410.268417 C 573.0460634 409.7373422 573.6254177 409.1901579 574.1887115999999 408.626864 L 574.1887115999999 411.1374976 C 580.2963417 414.34820890000003 585.7199545999999 418.70962310000004 590.2825416999999 423.86772310000003 L 590.2825416999999 368.40034340000005 L 590.0089249999999 368.40034340000005 Z M 542.137835 317.6403892 C 557.1131813 319.5475041 571.3401212 327.64269870000004 580.3365664 339.7855152 C 571.146954 325.6953591 556.9120084 318.7106427 542.137835 317.6403892 Z M 638.3709139 462.9757105 C 632.1586699 432.405488 625.4234059 398.05320559999996 624.0956944 377.3806788 C 621.0781012 352.87781259999997 639.3284987 348.6692917 637.8639542999999 314.2204503 C 638.1536315 274.66183739999997 625.4556249999999 235.513576 601.5160526999999 203.96965899999998 C 592.2540455999999 192.84881649999997 581.8493903 212.53964319999997 575.0014577 217.71380369999997 L 575.0255728999999 217.77819279999997 C 558.8674027999999 235.58597069999996 545.5577738 255.53430459999998 535.3623461999999 277.26903 C 508.29251209999995 262.06034089999997 451.8353775999999 262.08450519999997 424.8218777999999 277.26903 C 413.03312759999994 252.35576329999998 397.60720509999993 229.84856539999998 377.94859749999995 210.310632 C 372.56520939999996 204.7985148 365.3551557999999 195.4399487 358.59577659999997 203.969659 C 334.76081809999994 235.577965 322.014483 274.6618374 322.3202697 314.22045030000004 C 320.86377999999996 348.72562610000006 339.0739528 352.732974 336.08852959999996 377.38067880000006 C 334.76081809999994 398.05320560000007 328.02555409999997 432.40548800000005 321.81331009999997 462.97571050000005 C 321.16956669999996 466.13814220000006 322.08692679999996 469.42129730000005 324.2756641 471.79514710000007 C 385.57705719999996 540.3548733 492.4240191 560.0939305 574.1887114 518.1292978 L 574.1887114 532.3159639 C 557.3948035999999 540.8778933000001 563.8725604 567.8028888 583.040318 567.4649322 C 603.1897756999999 567.7626641 608.7099966999999 538.8742194 590.2825416 531.5434915000001 L 590.2825416 509.26963650000005 C 601.966678 501.24683660000005 639.3123892 477.6854948000001 638.3709139 462.97571050000005 Z M 447.04745330000003 446.3749208 C 434.31518480000005 449.0968675 421.22219390000004 446.59083089999996 408.56709950000004 444.4678059 C 406.4427021 444.09767919999996 404.3263595 443.743613 402.2261265 443.42171679999996 C 401.92839460000005 443.36538249999995 401.62260790000005 443.3251577 401.3248759 443.27687819999994 C 406.2656935 452.5066661999999 415.0690206 459.29020969999993 424.9426011 462.89526109999997 C 446.4439346 473.9195446 418.1510028 499.74206749999996 442.90327229999997 516.350912 C 404.9862124 508.8511813 369.58784089999995 489.6995332 342.5662863 461.8571776 C 348.6095274 431.9790271 354.8378318 399.4131363 356.1655924 378.66016 C 360.17294039999996 349.2808652 340.4097189 341.79724400000003 342.4375573 313.1984764 C 342.6226206 283.3605507 350.46030809999996 252.69372 366.892144 227.6517242 C 386.84848359999995 247.8575162 400.4557953 272.3926015 412.4778884 297.75644439999996 C 412.30087979999996 297.49093159999995 411.70541599999996 296.59768669999994 410.76389159999997 295.1975313 C 411.20651119999997 296.15511619999995 411.78586549999994 297.0403063 412.50205279999994 297.8047239 C 412.51010759999997 297.8127787 412.5181623 297.8208334 412.5181623 297.8288882 L 412.526168 297.8288882 L 412.526168 297.836943 C 424.0976358 306.0528119 424.355143 296.8069143 443.91719159999997 291.46375090000004 C 507.64876879999997 268.8117144 540.5686767 315.67694000000006 549.5731767 294.85957460000003 C 559.9698263 269.8819679 574.6795615 247.27010710000002 593.2920799999999 227.65172420000005 C 610.9067888999999 254.38360160000005 618.2536263 286.94944330000004 617.8271162 318.75086740000006 C 617.8593353 330.41889430000003 612.2667195 341.0166677000001 608.0984234 350.2465048000001 C 596.3257827 381.2351335000001 611.7034256 421.79965990000005 617.6178886 461.8571775000001 C 609.2652359 470.46738640000007 600.0917331 478.24073390000007 590.2825417 485.1288912000001 L 590.2825417 368.4003431000001 L 590.008925 368.4003431000001 C 589.9043603 357.5208982000001 586.2510294 347.7760958000001 580.3365665 339.7855151000001 C 571.1469541 325.6953590000001 556.9120085 318.7106426000001 542.1378351 317.6403891000001 C 529.6490563 316.0390609000001 516.645214 318.7508673000001 505.7255444 327.0150648000001 C 505.709484 327.0955143000001 505.6933744 327.1679582000001 505.6772649 327.24840770000014 C 486.7106802 339.8740194000001 475.72667060000003 364.0228194000001 489.1891438 395.30922910000015 C 473.4815499 394.9551629000002 452.6722393 392.87904500000013 454.5793542 415.37823730000014 C 455.343821 420.97080400000016 456.6071925 427.53711420000013 460.8639929 431.45595790000016 C 461.4675115 432.0192518000002 462.12736450000006 432.51815660000017 462.8596612 432.96072710000016 L 452.3503921 444.8782064000002 C 450.6064093 445.4662945000002 448.84377190000004 445.98115980000017 447.0474535 446.37492080000015 Z M 569.6261243 388.3003485 C 566.1579059000001 394.06191809999996 560.6699039 399.5579748 552.7276027 404.3620087 C 552.8080522 404.3861239 552.8885508000001 404.418343 552.9770551 404.4424582 C 526.8728606000001 415.9093122 487.5958701 394.6493763 502.4584987 355.4367258 C 507.3188668 346.8989607 513.0241021 341.08911159999997 519.0512336 337.5001698 C 529.8260647000001 332.1570064 543.0390855 332.5835165 553.8058618 337.84618129999996 C 553.8219713 337.84618129999996 553.8460866 337.8622908 553.8621961 337.87034559999995 C 563.2127075 343.24567899999994 570.5756544 352.39501749999994 573.3035704 362.71922329999995 C 573.7783109000001 365.22180209999993 574.0117029 367.86116469999996 573.9714290000001 370.64541499999996 C 573.5530228 377.55773669999996 571.9999741 383.4239201 569.6261243 388.30034859999995 Z M 460.7030446 503.9505883 C 437.8659448 500.3778052 457.4682181 469.17989969999996 467.1245162 456.1117175 C 466.77045000000004 459.805224 466.89112420000004 463.5470592 467.5107524 467.2083957 C 468.4281125 471.9882652 469.9731064 476.7761895 473.4815496 481.58822899999996 C 481.3272918 473.67809769999997 485.28640939999997 462.71820329999997 486.3324985 451.84681319999993 C 486.3324985 452.04798609999995 496.3267533 458.42923289999993 496.78543329999997 458.75913489999994 C 496.6888742 489.2006283999999 489.3420369 509.60759319999994 460.7030445 503.95058829999994 Z M 574.1887114 495.2679846 C 574.1806566 495.2679846 574.1806566 495.2760394 574.1726019 495.2760394 C 547.818955 510.138668 517.9649198 518.6603726 487.7245992 519.8593551 C 516.6049892 509.93749510000004 504.8323485 470.8214527 531.0411568 464.2390821 L 531.0411568 464.2310273 C 542.5723998 461.15709979999997 553.2345623 453.8022568 558.8593480999999 443.2768781 C 538.8144551999999 446.2703069 516.0416952999999 453.2952972 499.5214041999999 438.4487291 L 496.8819924999999 433.2423495 C 503.4268665999999 429.5347165 504.8599770999999 421.1416172 505.7657690999999 414.2838196 C 507.51061549999986 415.6009694 509.3580792999999 416.7841998 511.2779353999999 417.8244819 C 531.1296610999999 428.68781720000004 558.7386247999999 424.9057573 574.1887114999998 408.62686390000005 L 574.1887114999998 495.26798470000006 Z M 502.4584987 355.4367257 C 507.3188668 346.8989606 513.0241021 341.0891115 519.0512336 337.5001697 C 512.0504568 340.9603334 506.07961040000004 346.8587359 502.45849870000006 355.4367257 Z M 552.7276027 404.3620086 C 552.8080522 404.3861238 552.8885508000001 404.4183429 552.9770551 404.4424581 C 559.8491029 401.4168102 565.8038397 396.1299811 569.6261243 388.3003484 C 566.1579059000001 394.061918 560.6699039 399.55797470000005 552.7276027 404.3620086 Z M 553.8621961 337.8703454 C 563.2127075 343.2456788 570.5756544 352.3950173 573.3035704 362.7192231 C 571.0423892 351.06725670000003 563.4219351 342.56166160000004 553.8621961 337.8703454 Z M 412.4778885 297.7564443 C 412.3008799 297.4909315 411.7054161 296.5976866 410.7638917 295.1975312 C 411.2065113 296.1551161 411.78586559999997 297.04030620000003 412.50205289999997 297.80472380000003 C 412.49399809999994 297.7967181 412.48594339999994 297.78060860000005 412.47788859999997 297.75644430000006 Z M 505.7255443 327.0150648 C 505.7094839 327.0955143 505.6933743 327.1679582 505.67726480000005 327.24840770000003 C 516.2911477 320.16713230000005 529.4156643 316.70696860000004 542.137835 317.64038910000005 C 529.6490562 316.03906090000004 516.6452139 318.75086730000004 505.7255443 327.01506480000006 Z M 542.137835 317.6403891 C 557.1131813 319.547504 571.3401212 327.6426986 580.3365664 339.7855151 C 571.146954 325.695359 556.9120084 318.71064259999997 542.137835 317.6403891 Z M 580.3365664 339.7855151 C 585.2049402 347.2610815 588.6570491 356.740371 590.0089249 368.4003431 C 589.9043602 357.5208982 586.2510293 347.7760958 580.3365664 339.7855151 Z M 412.47788850000006 297.7564443 C 412.30087990000004 297.4909315 411.70541610000004 296.5976866 410.76389170000004 295.1975312 C 411.20651130000005 296.1551161 411.7858656 297.04030620000003 412.5020529 297.80472380000003 C 412.4939981 297.7967181 412.4859434 297.78060860000005 412.4778886 297.75644430000006 Z" stroke-linecap="round" />
</g>
</g>
</g>
</svg>