<?xml version="1.0" encoding="UTF-8" standalone="no" ?>
<!DOCTYPE svg PUBLIC "-//W3C//DTD SVG 1.1//EN" "http://www.w3.org/Graphics/SVG/1.1/DTD/svg11.dtd">
<svg xmlns="http://www.w3.org/2000/svg" xmlns:xlink="http://www.w3.org/1999/xlink" version="1.1" width="500" height="500" viewBox="0 0 500 500" xml:space="preserve">
<desc>Created with Fabric.js 3.6.3</desc>
<defs>
</defs>
<rect x="0" y="0" width="100%" height="100%" fill="#141A2A"></rect>
<g transform="matrix(5.032346271609568 0 0 5.032346271609568 250.25 250.4380418766775)"  >
<path style="stroke: none; stroke-width: 0; stroke-dasharray: none; stroke-linecap: butt; stroke-dashoffset: 0; stroke-linejoin: miter; stroke-miterlimit: 4; fill: rgb(255,255,255); fill-rule: evenodd; opacity: 1;"  transform=" translate(-31.49749999999999, -29.0044)" d="M 4 40.0044 C 3.449 40.0044 3 39.5554 3 39.0044 C 3 38.4534 3.449 38.0044 4 38.0044 L 9.926 38.0044 C 9.951 38.0044 9.975 38.0074 10 38.0074 L 16.061 38.0074 L 16.059 38.0044 L 18.463 38.0044 L 18.465 38.0074 L 30.995 38.0074 L 32 38.0074 L 44.53 38.0074 L 44.532 38.0044 L 46.936 38.0044 L 46.934 38.0074 L 52.995 38.0074 C 53.02 38.0074 53.044 38.0044 53.069 38.0044 L 58 38.0044 C 58.551 38.0044 59 38.4534 59 39.0044 C 59 39.5554 58.551 40.0044 58 40.0044 L 4 40.0044 Z M 30 18.4384 L 30 15.9674 L 30 15.9544 C 29.437 15.5984 28.737 15.2264 27.908 14.9034 L 31 9.9054 L 34.095 14.9074 C 33.255 15.2344 32.567 15.6094 32 15.9674 L 32 16.6624 L 32 18.4384 L 32 36.0044 L 30 36.0044 L 30 18.4384 Z M 12 47.0044 C 12 47.5564 11.552 48.0044 11 48.0044 L 9 48.0044 C 8.448 48.0044 8 47.5564 8 47.0044 C 8 46.4524 8.448 46.0044 9 46.0044 L 11 46.0044 C 11.552 46.0044 12 46.4524 12 47.0044 L 12 47.0044 Z M 16 47.0044 C 16 47.5564 15.552 48.0044 15 48.0044 C 14.448 48.0044 14 47.5564 14 47.0044 C 14 46.4524 14.448 46.0044 15 46.0044 C 15.552 46.0044 16 46.4524 16 47.0044 L 16 47.0044 Z M 28 47.0044 C 28 47.5564 27.552 48.0044 27 48.0044 L 19 48.0044 C 18.448 48.0044 18 47.5564 18 47.0044 C 18 46.4524 18.448 46.0044 19 46.0044 L 27 46.0044 C 27.552 46.0044 28 46.4524 28 47.0044 L 28 47.0044 Z M 32 47.0044 C 32 47.5564 31.552 48.0044 31 48.0044 C 30.448 48.0044 30 47.5564 30 47.0044 C 30 46.4524 30.448 46.0044 31 46.0044 C 31.552 46.0044 32 46.4524 32 47.0044 L 32 47.0044 Z M 44 47.0044 C 44 47.5564 43.552 48.0044 43 48.0044 L 35 48.0044 C 34.448 48.0044 34 47.5564 34 47.0044 C 34 46.4524 34.448 46.0044 35 46.0044 L 43 46.0044 C 43.552 46.0044 44 46.4524 44 47.0044 L 44 47.0044 Z M 48 47.0044 C 48 47.5564 47.552 48.0044 47 48.0044 C 46.448 48.0044 46 47.5564 46 47.0044 C 46 46.4524 46.448 46.0044 47 46.0044 C 47.552 46.0044 48 46.4524 48 47.0044 L 48 47.0044 Z M 54 47.0044 C 54 47.5564 53.552 48.0044 53 48.0044 L 51 48.0044 C 50.448 48.0044 50 47.5564 50 47.0044 C 50 46.4524 50.448 46.0044 51 46.0044 L 53 46.0044 C 53.552 46.0044 54 46.4524 54 47.0044 L 54 47.0044 Z M 59 55.0044 C 59 55.5554 58.551 56.0044 58 56.0044 L 4 56.0044 C 3.449 56.0044 3 55.5554 3 55.0044 C 3 54.4534 3.449 54.0044 4 54.0044 L 58 54.0044 C 58.551 54.0044 59 54.4534 59 55.0044 L 59 55.0044 Z M 61 39.0044 C 61 37.6204 60.053 36.4634 58.776 36.1194 C 58.996 35.9344 59.208 35.7364 59.409 35.5254 C 62.201 32.5844 62.003 28.1434 61.994 27.9554 C 61.995 23.0974 58.49 20.2964 56.4 19.0644 C 55.122 18.3094 53.451 17.9144 51.934 18.0094 C 51.868 18.0134 51.81 18.0204 51.746 18.0244 C 52.147 18.6264 52.503 19.2614 52.796 19.9334 C 53.02 20.5164 54.913 25.7454 52.491 29.6714 L 48.269 36.0044 L 45.865 36.0044 L 50.827 28.5624 C 52.741 25.4584 51.003 20.8434 50.929 20.6494 C 49.226 16.7554 45.154 14.1674 40.538 14.0104 C 40.164 13.9974 39.95 14.0074 39.95 14.0084 L 39.948 14.0084 C 38.529 14.0084 37.29 14.2204 36.213 14.5294 L 32 7.7204 L 32 5.0044 L 34 5.0044 C 34.552 5.0044 35 4.5564 35 4.0044 C 35 3.4524 34.552 3.0044 34 3.0044 L 32 3.0044 L 32 1.0044 C 32 0.4524 31.552 0.0044 31 0.0044 C 30.448 0.0044 30 0.4524 30 1.0044 L 30 3.0044 L 28 3.0044 C 27.448 3.0044 27 3.4524 27 4.0044 C 27 4.5564 27.448 5.0044 28 5.0044 L 30 5.0044 L 30 7.7204 L 25.92 14.3144 C 25.054 14.1294 24.102 14.0084 23.047 14.0084 L 23.045 14.0084 C 23.045 14.0074 22.831 13.9974 22.458 14.0104 C 17.841 14.1674 13.769 16.7554 12.066 20.6494 C 11.992 20.8434 10.254 25.4584 12.168 28.5624 L 17.13 36.0044 L 14.726 36.0044 L 10.504 29.6714 C 8.082 25.7454 9.975 20.5164 10.199 19.9334 C 10.492 19.2614 10.849 18.6264 11.249 18.0244 C 11.185 18.0204 11.127 18.0134 11.062 18.0094 C 9.544 17.9144 7.874 18.3094 6.595 19.0644 C 4.505 20.2964 1 23.0974 1.001 27.9554 C 0.992 28.1434 0.794 32.5844 3.586 35.5254 C 3.748 35.6954 3.92 35.8514 4.094 36.0044 L 4 36.0044 C 2.346 36.0044 1 37.3504 1 39.0044 C 1 40.6584 2.346 42.0044 4 42.0044 L 4 52.0044 C 2.346 52.0044 1 53.3504 1 55.0044 C 1 56.6584 2.346 58.0044 4 58.0044 L 58 58.0044 C 59.654 58.0044 61 56.6584 61 55.0044 C 61 53.3504 59.654 52.0044 58 52.0044 L 58 42.0044 C 59.654 42.0044 61 40.6584 61 39.0044 L 61 39.0044 Z" stroke-linecap="round" />
</g>
<g transform="matrix(0.48223350253807107 0 0 0.07868020304568528 250.25 285.4380418766775)"  >
<rect style="stroke: none; stroke-width: 1; stroke-dasharray: none; stroke-linecap: butt; stroke-dashoffset: 0; stroke-linejoin: miter; stroke-miterlimit: 4; fill: rgb(20,26,42); fill-rule: evenodd; opacity: 1;"  x="-393.5" y="-393.5" rx="0" ry="0" width="787" height="787" />
</g>
<g transform="matrix(1 0 0 1 249.2528489793894 286.27804187667743)" style=""  ><path fill="#ffffff" opacity="1" d="M-147.49 8.65L-140.11-2.84L-138.85-5.36L-138.85 11.31L-135.25 11.31L-135.61 8.61L-135.61-12.38L-137.63-12.38L-147.35 2.92L-158.08-12.38L-160.45-12.38L-159.98-9.07L-159.98 11.31L-156.67 11.31L-157.03 8.61L-157.03-5.21L-155.84-2.84Z"/><path fill="#ffffff" opacity="1" d="M-119.16-12.81C-125.32-12.81-129.96-7.27-129.96-0.32C-129.96 6.34-126.22 11.78-119.63 11.78C-113.47 11.78-108.76 6.23-108.76-0.75C-108.76-7.66-112.21-12.81-119.16-12.81ZM-126.43-0.53C-126.43-5.90-123.59-10.25-119.34-10.25C-115.09-10.25-112.28-5.90-112.28-0.53C-112.28 4.83-115.09 9.19-119.34 9.19C-123.59 9.19-126.43 4.83-126.43-0.53Z"/><path fill="#ffffff" opacity="1" d="M-83.84-12.38L-87.26-12.38L-86.80-9.07L-86.80 4.94L-88.38 2.60L-101.59-12.38L-103.79-12.38L-103.32-9.07L-103.32 11.31L-100.01 11.31L-100.37 8.61L-100.37-6.15L-98.82-3.81L-85.32 11.31L-83.63 11.31L-83.84 8.61Z"/><path fill="#ffffff" opacity="1" d="M-80.28 11.31L-77.15 11.31L-74.81 5.12L-65.99 5.12L-63.72 11.31L-59.80 11.31L-61.60 7.35L-68.94-12.85L-71.14-12.38ZM-70.67-5.86L-70.24-7.30L-69.88-5.90L-66.89 2.38L-73.84 2.38Z"/><path fill="#ffffff" opacity="1" d="M-38.84 11.31L-46.22 1.52C-43.38 0.19-41.62-2.44-41.62-5.25C-41.62-10.11-45.43-12.38-49.39-12.38L-56.09-12.38L-55.62-9.07L-55.62 11.31L-52.02 11.31L-52.38 8.61L-52.38 2.45C-50.26 2.45-49.75 2.45-49.36 2.42L-43.02 11.31ZM-52.38-0.21L-52.38-9.71L-50.04-9.71C-47.38-9.71-45.04-8.20-45.04-5.25C-45.04-2.51-47.38-0.21-50.04-0.21Z"/><path fill="#ffffff" opacity="1" d="M-17.86-9.86C-19.98-11.80-22.43-12.81-25.42-12.81C-31.75-12.81-36.86-7.41-36.86-0.03C-36.86 7.67-31.46 11.78-25.88 11.78C-20.99 11.78-17.53 8.65-17.53 8.65L-18.32 5.98C-18.32 5.98-22.03 9.01-25.31 9.01C-29.34 9.01-33.41 5.41-33.41-0.39C-33.41-5.39-30.20-10.15-25.56-10.15C-23.18-10.15-21.20-9.17-19.51-7.41Z"/><path fill="#ffffff" opacity="1" d="M6.91-12.38L3.20-12.38L3.67-9.07L3.67-2.37L-9.00-2.37L-9.00-12.38L-12.71-12.38L-12.24-9.07L-12.24 11.31L-8.64 11.31L-9.00 8.61L-9.00 0.51L3.67 0.51L3.67 11.31L7.27 11.31L6.91 8.61Z"/><path fill="#ffffff" opacity="1" d=""/><path fill="#ffffff" opacity="1" d="M24.66-9.07L24.66 11.31L28.26 11.31L27.90 8.61L27.90 0.51L34.70 0.51L35.42-2.15L27.90-2.15L27.90-9.71L36.50-9.71L36.50-12.38L24.19-12.38Z"/><path fill="#ffffff" opacity="1" d="M45.22-12.38L41.51-12.38L41.98-9.07L41.98 11.31L45.58 11.31L45.22 8.61Z"/><path fill="#ffffff" opacity="1" d="M72.47-12.38L69.05-12.38L69.52-9.07L69.52 4.94L67.93 2.60L54.72-12.38L52.52-12.38L52.99-9.07L52.99 11.31L56.30 11.31L55.94 8.61L55.94-6.15L57.49-3.81L70.99 11.31L72.68 11.31L72.47 8.61Z"/><path fill="#ffffff" opacity="1" d="M76.03 11.31L79.16 11.31L81.50 5.12L90.32 5.12L92.59 11.31L96.52 11.31L94.72 7.35L87.37-12.85L85.18-12.38ZM85.64-5.86L86.08-7.30L86.44-5.90L89.42 2.38L82.48 2.38Z"/><path fill="#ffffff" opacity="1" d="M119.95-12.38L116.53-12.38L117.00-9.07L117.00 4.94L115.42 2.60L102.20-12.38L100.01-12.38L100.48-9.07L100.48 11.31L103.79 11.31L103.43 8.61L103.43-6.15L104.98-3.81L118.48 11.31L120.17 11.31L119.95 8.61Z"/><path fill="#ffffff" opacity="1" d="M144.22-9.86C142.09-11.80 139.64-12.81 136.66-12.81C130.32-12.81 125.21-7.41 125.21-0.03C125.21 7.67 130.61 11.78 136.19 11.78C141.08 11.78 144.54 8.65 144.54 8.65L143.75 5.98C143.75 5.98 140.04 9.01 136.76 9.01C132.73 9.01 128.66 5.41 128.66-0.39C128.66-5.39 131.87-10.15 136.51-10.15C138.89-10.15 140.87-9.17 142.56-7.41Z"/><path fill="#ffffff" opacity="1" d="M149.83 11.31L161.35 11.31L162.07 8.65L153.07 8.65L153.07 0.51L159.88 0.51L160.60-2.15L153.07-2.15L153.07-9.71L161.68-9.71L161.68-12.38L149.36-12.38L149.83-9.07Z"/></g></svg>